<mxfile host="app.diagrams.net" agent="Mozilla/5.0 (Windows NT 10.0; Win64; x64) AppleWebKit/537.36 (KHTML, like Gecko) Chrome/136.0.0.0 Safari/537.36" version="27.1.4">
  <diagram name="C4-Level3-Component" id="c4acf3e9-155e-7222-9cf6-157b1a14988f">
    <mxGraphModel dx="1809" dy="1110" grid="1" gridSize="10" guides="1" tooltips="1" connect="1" arrows="1" fold="1" page="1" pageScale="1" pageWidth="1169" pageHeight="827" math="0" shadow="0">
      <root>
        <mxCell id="0" />
        <mxCell id="1" parent="0" />
        <mxCell id="webAppBoundary" value="Web Application" style="fillColor=none;strokeColor=#1061B0;strokeWidth=2;dashed=1;align=left;verticalAlign=top;fontStyle=1;fontSize=14;spacingLeft=10;spacingTop=10;" parent="1" vertex="1">
          <mxGeometry x="280" y="80" width="970" height="480" as="geometry" />
        </mxCell>
        <mxCell id="router" value="&lt;b&gt;Client Routes&lt;/b&gt;&lt;br&gt;[Component: Express Router]&lt;br&gt;&lt;br&gt;Defines API endpoints and routes requests" style="rounded=1;whiteSpace=wrap;html=1;fillColor=#85BBF0;strokeColor=none;fontColor=#000000;align=center;verticalAlign=middle;" parent="1" vertex="1">
          <mxGeometry x="340" y="120" width="190" height="100" as="geometry" />
        </mxCell>
        <mxCell id="controller" value="&lt;b&gt;Client Controller&lt;/b&gt;&lt;br&gt;[Component: Express Controller]&lt;br&gt;&lt;br&gt;Handles HTTP requests and responses" style="rounded=1;whiteSpace=wrap;html=1;fillColor=#85BBF0;strokeColor=none;fontColor=#000000;align=center;verticalAlign=middle;" parent="1" vertex="1">
          <mxGeometry x="700" y="110" width="200" height="110" as="geometry" />
        </mxCell>
        <mxCell id="service" value="&lt;b&gt;Client Service&lt;/b&gt;&lt;br&gt;[Component: Business Logic]&lt;br&gt;&lt;br&gt;Contains business logic for client operations" style="rounded=1;whiteSpace=wrap;html=1;fillColor=#85BBF0;strokeColor=none;fontColor=#000000;align=center;verticalAlign=middle;" parent="1" vertex="1">
          <mxGeometry x="1030" y="110" width="190" height="110" as="geometry" />
        </mxCell>
        <mxCell id="model" value="&lt;b&gt;Client Model&lt;/b&gt;&lt;br&gt;[Component: Sequelize Model]&lt;br&gt;&lt;br&gt;Defines client data structure and database mapping" style="rounded=1;whiteSpace=wrap;html=1;fillColor=#85BBF0;strokeColor=none;fontColor=#000000;align=center;verticalAlign=middle;" parent="1" vertex="1">
          <mxGeometry x="1030" y="375" width="190" height="100" as="geometry" />
        </mxCell>
        <mxCell id="dbConfig" value="&lt;b&gt;Database Config&lt;/b&gt;&lt;br&gt;[Component: Sequelize Connection]&lt;br&gt;&lt;br&gt;Manages database connection and configuration" style="rounded=1;whiteSpace=wrap;html=1;fillColor=#85BBF0;strokeColor=none;fontColor=#000000;align=center;verticalAlign=middle;" parent="1" vertex="1">
          <mxGeometry x="345" y="370" width="180" height="110" as="geometry" />
        </mxCell>
        <mxCell id="database" value="&lt;b&gt;Database&lt;/b&gt;&lt;br&gt;[Container: SQLite]&lt;br&gt;&lt;br&gt;Stores client information" style="shape=cylinder3;whiteSpace=wrap;html=1;boundedLbl=1;backgroundOutline=1;size=15;fillColor=#23A2D9;strokeColor=none;fontColor=#ffffff;align=center;verticalAlign=middle;" parent="1" vertex="1">
          <mxGeometry x="40" y="380" width="150" height="110" as="geometry" />
        </mxCell>
        <mxCell id="rel1" value="Makes API calls&lt;br&gt;[HTTP/JSON]" style="edgeStyle=orthogonalEdgeStyle;rounded=0;orthogonalLoop=1;jettySize=auto;html=1;strokeWidth=2;fontColor=#707070;" parent="1" source="nP6o8Ou8nYHjVtSLfCry-1" target="router" edge="1">
          <mxGeometry relative="1" as="geometry">
            <mxPoint x="210" y="175" as="sourcePoint" />
          </mxGeometry>
        </mxCell>
        <mxCell id="rel2" value="Routes requests to&lt;br&gt;[Function calls]" style="edgeStyle=orthogonalEdgeStyle;rounded=0;orthogonalLoop=1;jettySize=auto;html=1;strokeWidth=2;fontColor=#707070;" parent="1" source="router" target="controller" edge="1">
          <mxGeometry relative="1" as="geometry" />
        </mxCell>
        <mxCell id="rel3" value="Calls business logic&lt;br&gt;[Function calls]" style="edgeStyle=orthogonalEdgeStyle;rounded=0;orthogonalLoop=1;jettySize=auto;html=1;strokeWidth=2;fontColor=#707070;" parent="1" source="controller" target="service" edge="1">
          <mxGeometry relative="1" as="geometry" />
        </mxCell>
        <mxCell id="rel4" value="Uses&lt;br&gt;[Sequelize methods]" style="edgeStyle=orthogonalEdgeStyle;rounded=0;orthogonalLoop=1;jettySize=auto;html=1;strokeWidth=2;fontColor=#707070;" parent="1" source="service" target="model" edge="1">
          <mxGeometry relative="1" as="geometry" />
        </mxCell>
        <mxCell id="rel5" value="Uses connection&lt;br&gt;[Sequelize]" style="edgeStyle=orthogonalEdgeStyle;rounded=0;orthogonalLoop=1;jettySize=auto;html=1;strokeWidth=2;fontColor=#707070;" parent="1" source="model" target="dbConfig" edge="1">
          <mxGeometry relative="1" as="geometry" />
        </mxCell>
        <mxCell id="rel6" value="Connects to&lt;br&gt;[SQLite driver]" style="edgeStyle=orthogonalEdgeStyle;rounded=0;orthogonalLoop=1;jettySize=auto;html=1;strokeWidth=2;fontColor=#707070;" parent="1" source="dbConfig" target="database" edge="1">
          <mxGeometry relative="1" as="geometry" />
        </mxCell>
        <mxCell id="nP6o8Ou8nYHjVtSLfCry-1" value="Actor" style="shape=umlActor;verticalLabelPosition=bottom;verticalAlign=top;html=1;outlineConnect=0;" vertex="1" parent="1">
          <mxGeometry x="85" y="115" width="60" height="110" as="geometry" />
        </mxCell>
      </root>
    </mxGraphModel>
  </diagram>
</mxfile>
